<svg viewBox="0 0 560 230" role="img" aria-label="本月每天工时趋势"><defs><linearGradient id="trend-fill" x1="0" x2="0" y1="0" y2="1"><stop offset="0%" stop-color="#2f8f89" stop-opacity="0.22"></stop><stop offset="100%" stop-color="#2f8f89" stop-opacity="0"></stop></linearGradient></defs><g><line class="grid-line" x1="38" x2="536" y1="194" y2="194"></line><text class="axis-label y-label" x="10" y="199">0</text></g><g><line class="grid-line" x1="38" x2="536" y1="151.5" y2="151.5"></line><text class="axis-label y-label" x="10" y="156.5">1</text></g><g><line class="grid-line" x1="38" x2="536" y1="109" y2="109"></line><text class="axis-label y-label" x="10" y="114">2</text></g><g><line class="grid-line" x1="38" x2="536" y1="66.5" y2="66.5"></line><text class="axis-label y-label" x="10" y="71.5">3</text></g><g><line class="grid-line" x1="38" x2="536" y1="24" y2="24"></line><text class="axis-label y-label" x="10" y="29">4</text></g><path class="trend-area" d="M 38 194 C 40.766666666666666 194 49.06666666666667 194 54.6 194 C 60.13333333333333 194 65.66666666666667 194 71.2 194 C 76.73333333333333 194 82.26666666666668 194 87.80000000000001 194 C 93.33333333333334 194 98.86666666666667 194 104.4 194 C 109.93333333333334 194 115.46666666666667 194 121 194 C 126.53333333333333 194 132.0666666666667 194 137.60000000000002 194 C 143.13333333333335 194 148.66666666666669 194 154.20000000000002 194 C 159.73333333333335 194 165.26666666666668 194 170.8 194 C 176.33333333333334 194 181.86666666666667 194 187.4 194 C 192.93333333333334 194 198.46666666666667 194 204 194 C 209.53333333333333 194 215.0666666666667 194 220.60000000000002 194 C 226.13333333333335 194 231.66666666666669 194 237.20000000000002 194 C 242.73333333333335 194 248.26666666666668 194 253.8 194 C 259.33333333333337 194 264.8666666666667 194 270.40000000000003 194 C 275.9333333333334 194 281.4666666666667 194 287 194 C 292.5333333333333 194 298.06666666666666 194 303.6 194 C 309.1333333333334 194 314.66666666666674 194 320.20000000000005 194 C 325.73333333333335 194 331.26666666666665 194 336.8 194 C 342.33333333333337 194 347.8666666666667 194 353.40000000000003 194 C 358.9333333333334 194 364.4666666666667 194 370 194 C 375.5333333333333 194 381.06666666666666 194 386.6 194 C 392.1333333333334 194 397.66666666666674 194 403.20000000000005 194 C 408.73333333333335 194 414.26666666666665 194 419.8 194 C 425.33333333333337 194 430.8666666666667 194 436.40000000000003 194 C 441.9333333333334 194 447.4666666666667 194 453.00000000000006 194 C 458.5333333333334 194 464.0666666666667 194 469.6 194 C 475.1333333333333 194 480.6666666666667 194 486.20000000000005 194 C 491.7333333333334 194 497.2666666666667 194 502.80000000000007 194 C 508.3333333333334 194 513.8666666666668 194 519.4000000000001 194 C 524.9333333333334 194 533.2333333333333 194 536 194 L 536 194 L 38 194 Z"></path><path class="trend-line" d="M 38 194 C 40.766666666666666 194 49.06666666666667 194 54.6 194 C 60.13333333333333 194 65.66666666666667 194 71.2 194 C 76.73333333333333 194 82.26666666666668 194 87.80000000000001 194 C 93.33333333333334 194 98.86666666666667 194 104.4 194 C 109.93333333333334 194 115.46666666666667 194 121 194 C 126.53333333333333 194 132.0666666666667 194 137.60000000000002 194 C 143.13333333333335 194 148.66666666666669 194 154.20000000000002 194 C 159.73333333333335 194 165.26666666666668 194 170.8 194 C 176.33333333333334 194 181.86666666666667 194 187.4 194 C 192.93333333333334 194 198.46666666666667 194 204 194 C 209.53333333333333 194 215.0666666666667 194 220.60000000000002 194 C 226.13333333333335 194 231.66666666666669 194 237.20000000000002 194 C 242.73333333333335 194 248.26666666666668 194 253.8 194 C 259.33333333333337 194 264.8666666666667 194 270.40000000000003 194 C 275.9333333333334 194 281.4666666666667 194 287 194 C 292.5333333333333 194 298.06666666666666 194 303.6 194 C 309.1333333333334 194 314.66666666666674 194 320.20000000000005 194 C 325.73333333333335 194 331.26666666666665 194 336.8 194 C 342.33333333333337 194 347.8666666666667 194 353.40000000000003 194 C 358.9333333333334 194 364.4666666666667 194 370 194 C 375.5333333333333 194 381.06666666666666 194 386.6 194 C 392.1333333333334 194 397.66666666666674 194 403.20000000000005 194 C 408.73333333333335 194 414.26666666666665 194 419.8 194 C 425.33333333333337 194 430.8666666666667 194 436.40000000000003 194 C 441.9333333333334 194 447.4666666666667 194 453.00000000000006 194 C 458.5333333333334 194 464.0666666666667 194 469.6 194 C 475.1333333333333 194 480.6666666666667 194 486.20000000000005 194 C 491.7333333333334 194 497.2666666666667 194 502.80000000000007 194 C 508.3333333333334 194 513.8666666666668 194 519.4000000000001 194 C 524.9333333333334 194 533.2333333333333 194 536 194"></path><text class="axis-label x-label" x="38" y="221">7/1</text><text class="axis-label x-label" x="121" y="221">7/6</text><text class="axis-label x-label" x="204" y="221">7/11</text><text class="axis-label x-label" x="287" y="221">7/16</text><text class="axis-label x-label" x="370" y="221">7/21</text><text class="axis-label x-label" x="453.00000000000006" y="221">7/26</text><text class="axis-label x-label" x="536" y="221">7/31</text></svg>