<svg xmlns="http://www.w3.org/2000/svg" width="1280" height="720" viewBox="0 0 1280 720" role="img" aria-labelledby="title desc">
  <title id="title">Giverny product overview</title>
  <desc id="desc">A visual overview of Giverny's dashboard, task list, progress panel, timeline, and settlement cards.</desc>
  <defs>
    <linearGradient id="bg" x1="0" x2="1" y1="0" y2="1">
      <stop offset="0" stop-color="#f8f9f5"/>
      <stop offset="1" stop-color="#eeefe9"/>
    </linearGradient>
    <filter id="shadow" x="-20%" y="-20%" width="140%" height="140%">
      <feDropShadow dx="0" dy="18" stdDeviation="20" flood-color="#17282f" flood-opacity="0.13"/>
    </filter>
  </defs>
  <rect width="1280" height="720" rx="32" fill="url(#bg)"/>
  <rect x="72" y="64" width="1136" height="592" rx="30" fill="#fdfdfb" filter="url(#shadow)"/>
  <rect x="72" y="64" width="92" height="592" rx="30" fill="#eeefe9"/>
  <circle cx="118" cy="112" r="24" fill="#2f6f6d"/>
  <text x="118" y="121" text-anchor="middle" font-family="Inter, Arial, sans-serif" font-size="22" font-weight="800" fill="#ffffff">G</text>
  <rect x="96" y="174" width="44" height="12" rx="6" fill="#2f6f6d"/>
  <rect x="96" y="214" width="44" height="12" rx="6" fill="#c6cfca"/>
  <rect x="96" y="254" width="44" height="12" rx="6" fill="#c6cfca"/>
  <rect x="96" y="294" width="44" height="12" rx="6" fill="#c6cfca"/>
  <text x="204" y="128" font-family="Inter, Arial, sans-serif" font-size="34" font-weight="800" fill="#17282f">Giverny 工作台</text>
  <text x="204" y="163" font-family="Inter, Arial, sans-serif" font-size="17" fill="#5f6d70">任务、工时、文件、验收与结算在一个地方闭环</text>
  <rect x="980" y="102" width="170" height="44" rx="14" fill="#2f6f6d"/>
  <text x="1065" y="130" text-anchor="middle" font-family="Inter, Arial, sans-serif" font-size="16" font-weight="700" fill="#ffffff">新建任务</text>
  <g transform="translate(204 206)">
    <rect width="210" height="92" rx="18" fill="#f8f9f5"/>
    <text x="24" y="34" font-family="Inter, Arial, sans-serif" font-size="14" fill="#8a9496">本月总工时</text>
    <text x="24" y="68" font-family="Inter, Arial, sans-serif" font-size="30" font-weight="800" fill="#17282f">8.0h</text>
    <rect x="236" width="210" height="92" rx="18" fill="#f8f9f5"/>
    <text x="260" y="34" font-family="Inter, Arial, sans-serif" font-size="14" fill="#8a9496">计费工时</text>
    <text x="260" y="68" font-family="Inter, Arial, sans-serif" font-size="30" font-weight="800" fill="#17282f">8.0h</text>
    <rect x="472" width="210" height="92" rx="18" fill="#f8f9f5"/>
    <text x="496" y="34" font-family="Inter, Arial, sans-serif" font-size="14" fill="#8a9496">预计收入</text>
    <text x="496" y="68" font-family="Inter, Arial, sans-serif" font-size="30" font-weight="800" fill="#17282f">¥2400</text>
    <rect x="708" width="210" height="92" rx="18" fill="#f8f9f5"/>
    <text x="732" y="34" font-family="Inter, Arial, sans-serif" font-size="14" fill="#8a9496">验收情况</text>
    <text x="732" y="68" font-family="Inter, Arial, sans-serif" font-size="30" font-weight="800" fill="#17282f">1 / 3</text>
  </g>
  <rect x="204" y="330" width="610" height="250" rx="24" fill="#f8f9f5"/>
  <text x="232" y="370" font-family="Inter, Arial, sans-serif" font-size="22" font-weight="800" fill="#17282f">任务明细</text>
  <rect x="232" y="398" width="542" height="54" rx="16" fill="#eef5ef" stroke="#9fbdb8"/>
  <text x="254" y="430" font-family="Inter, Arial, sans-serif" font-size="16" font-weight="800" fill="#17282f">湖南展厅设计：输出产学研融合创新发展路径图矢量图</text>
  <rect x="650" y="414" width="72" height="24" rx="12" fill="#dce3ff"/>
  <text x="686" y="431" text-anchor="middle" font-family="Inter, Arial, sans-serif" font-size="13" font-weight="700" fill="#4051bb">计划中</text>
  <rect x="232" y="468" width="542" height="38" rx="12" fill="#ffffff"/>
  <rect x="232" y="522" width="542" height="38" rx="12" fill="#ffffff"/>
  <rect x="846" y="330" width="304" height="250" rx="24" fill="#f8f9f5"/>
  <text x="876" y="370" font-family="Inter, Arial, sans-serif" font-size="20" font-weight="800" fill="#17282f">进展记录</text>
  <line x1="898" y1="402" x2="898" y2="536" stroke="#d8ded9" stroke-width="2"/>
  <circle cx="898" cy="422" r="7" fill="#2f6f6d"/>
  <text x="920" y="428" font-family="Inter, Arial, sans-serif" font-size="15" font-weight="800" fill="#17282f">任务动态</text>
  <text x="920" y="454" font-family="Inter, Arial, sans-serif" font-size="14" fill="#5f6d70">进度更新为 80%</text>
  <circle cx="898" cy="493" r="7" fill="#2f6f6d"/>
  <text x="920" y="499" font-family="Inter, Arial, sans-serif" font-size="15" font-weight="800" fill="#17282f">验收附件</text>
  <text x="920" y="525" font-family="Inter, Arial, sans-serif" font-size="14" fill="#5f6d70">上传最终稿与证明文件</text>
  <rect x="876" y="548" width="236" height="12" rx="6" fill="#dfe4e0"/>
  <rect x="876" y="548" width="188" height="12" rx="6" fill="#2f6f6d"/>
</svg>
